<?xml version="1.0" encoding="UTF-8"?>
<svg width="18px" height="17px" viewBox="0 0 18 17" version="1.1" xmlns="http://www.w3.org/2000/svg" xmlns:xlink="http://www.w3.org/1999/xlink">
    <!-- Generator: Sketch 61 (89581) - https://sketch.com -->
    <title>Group 25</title>
    <desc>Created with Sketch.</desc>
    <g id="Page-1" stroke="none" stroke-width="1" fill="none" fill-rule="evenodd">
        <g id="ARTE" transform="translate(-464.000000, -549.000000)">
            <g id="Group-25" transform="translate(464.000000, 549.280000)">
                <path d="M13.7539,15.9385 L3.5299,15.9385 C1.9649,15.9385 0.6959,14.6685 0.6959,13.1035 L0.6959,3.6755 C0.6959,2.1725 1.9149,0.9545 3.4179,0.9545 L13.7539,0.9545 C15.3189,0.9545 16.5889,2.2225 16.5889,3.7895 L16.5889,13.1035 C16.5889,14.6685 15.3189,15.9385 13.7539,15.9385 Z" id="Stroke-19" stroke="#FFFFFE"></path>
                <path d="M12.0625,8.5381 C12.0625,10.4721 10.5345,12.0401 8.6485,12.0401 C6.7625,12.0401 5.2345,10.4721 5.2345,8.5381 C5.2345,6.6041 6.7625,5.0361 8.6485,5.0361 C10.5345,5.0361 12.0625,6.6041 12.0625,8.5381 Z" id="Stroke-21" stroke="#FFFFFE"></path>
                <path d="M15.1172,3.8574 C15.1172,4.7274 14.4112,5.4334 13.5412,5.4334 C12.6712,5.4334 11.9652,4.7274 11.9652,3.8574 C11.9652,2.9874 12.6712,2.2824 13.5412,2.2824 C14.4112,2.2824 15.1172,2.9874 15.1172,3.8574" id="Fill-23" fill="#FFFFFE"></path>
            </g>
        </g>
    </g>
</svg>